# xmcd CD database file
# Copyright (C) 1998 Ti Kan
# 
# Track frame offsets:
#     150
#     11535
#     27702
#     40060
#     53272
#     66815
#     84372
#     94635
#     110205
#     121312
#     134757
#     147590
#     160422
#     176325
# 
# Disc length: 2521 seconds
# 
# Revision: 1
# Processed by: cddbd v1.4b41PL1 Copyright (c) Steve Scherf et al.
# Submitted via: DiscPlay 4.0.4
# 
DISCID=be09d70e
DTITLE=Ohio Expesss - "Country Hits"
DYEAR=1900
DGENRE=
TTITLE0=Uncle Pen
TTITLE1=Lookin' For Love
TTITLE2=Ruby
TTITLE3=Roll In My Sweet Baby's Arm
TTITLE4=Rapid City, South Dakota
TTITLE5=Walk On By
TTITLE6=Luisiana Saturday Night
TTITLE7=Big Mamou
TTITLE8=Love Don't Make The Bars
TTITLE9=Tennesse Whiskey
TTITLE10=Simple Sing Along Country Song
TTITLE11=I Am Lonesome Fuggitive
TTITLE12=Send Me To Tucson
TTITLE13=I Like Beer
EXTD=
EXTT0=
EXTT1=
EXTT2=
EXTT3=
EXTT4=
EXTT5=
EXTT6=
EXTT7=
EXTT8=
EXTT9=
EXTT10=
EXTT11=
EXTT12=
EXTT13=
PLAYORDER=
